:SAMPLES-PER-SECOND 30
:FRAME-RANGE 1-668
:FULLY-SPECIFIED
:DEGREES
627
root  -7.49157 39.1899 -60.7805 178.099 -12.9664 -177.556
RightUpLeg  7.61228 -3.90438 7.13815
RightLeg  11.9435 -5.1416 1.36379
RightFoot  -17.0879 -0.216737 -2.01613
RightToes  -1.33073e-015 0 -3.6325e-017
Spine  4.94524 1.65956 5.21952
Spine1  0.478283 2.5244 -3.31922
HEad  1.97371 5.43261 -4.32615
LeftShoulder1  1.26437 0.282207 -33.1837
LeftArm  24.5362 13.4447 -32.533
LeftForeArm  -0.336015 -11.9134 -14.7051
LeftHand  0.494745 -2.44558 -7.14427
RightShoulder  10.2577 14.2757 50.5049
RightArm  16.8002 6.64646 13.7417
RightForeArm  13.8976 5.89171 16.1661
RightHand  0.266524 5.22317 2.60018
LeftUpLeg  -14.7684 6.3001 -2.73436
LeftLeg  -0.136675 32.6477 -6.26146
LeftFoot  7.87369 -2.20834 12.7051
LeftToes  -2.73175e-012 1.00346e-010 -4.28452e-011
628
root  -7.52081 39.0768 -61.9296 177.641 -15.5239 -177.888
RightUpLeg  8.38937 -13.0517 5.14707
RightLeg  15.8895 2.01326 1.48452
RightFoot  -18.0679 -0.134235 -0.204253
RightToes  -1.33073e-015 0 -3.6325e-017
Spine  5.08661 1.5757 2.38514
Spine1  0.386104 2.28225 -2.73231
HEad  2.07351 4.67108 -3.51118
LeftShoulder1  1.21175 0.415916 -33.1768
LeftArm  23.3452 12.9647 -30.8489
LeftForeArm  -0.678419 -11.5205 -14.956
LeftHand  0.474529 -2.32061 -6.96736
RightShoulder  9.98601 13.5334 51.3039
RightArm  15.8256 5.99329 13.1405
RightForeArm  15.035 4.08691 16.7667
RightHand  0.259503 5.26902 2.5099
LeftUpLeg  -14.901 5.97123 -3.96025
LeftLeg  4.66317 33.3197 -2.91595
LeftFoot  5.50954 -2.28632 15.1136
LeftToes  -2.73175e-012 1.00346e-010 -4.28452e-011
629
root  -7.54536 38.8753 -63.0366 178.021 -19.0514 -179.835
RightUpLeg  5.03414 -18.2356 1.84443
RightLeg  27.4444 6.14115 3.22898
RightFoot  -18.1497 0.112028 3.94966
RightToes  -1.33073e-015 0 -3.6325e-017
Spine  5.9149 1.4058 -1.54477
Spine1  -0.686287 1.78337 -2.18286
HEad  1.77883 5.18388 -3.51511
LeftShoulder1  1.21487 0.460423 -33.8461
LeftArm  20.7644 10.9145 -28.3795
LeftForeArm  -1.40209 -10.6142 -15.493
LeftHand  0.431437 -2.07381 -6.55103
RightShoulder  9.9505 12.9619 52.858
RightArm  13.319 5.61707 12.3152
RightForeArm  17.2049 0.379031 17.5422
RightHand  0.246005 5.22246 2.3764
LeftUpLeg  -16.9593 13.6127 -8.06504
LeftLeg  13.245 21.1888 1.26399
LeftFoot  1.82103 -1.34919 11.5556
LeftToes  -2.73175e-012 1.00346e-010 -4.28452e-011
630
root  -7.73104 38.7499 -63.9583 178.568 -22.1947 178.775
RightUpLeg  -0.313121 -19.8391 -1.37908
RightLeg  40.6958 8.39745 7.4011
RightFoot  -12.5335 0.0610128 14.0178
RightToes  -1.33073e-015 0 -3.6325e-017
Spine  6.59416 1.34613 -1.03124
Spine1  -1.25707 2.20647 -5.36929
HEad  1.23578 8.14181 -5.13948
LeftShoulder1  1.29153 0.296097 -34.1892
LeftArm  14.6098 7.98528 -26.7561
LeftForeArm  0.714432 -8.53276 -16.2249
LeftHand  0.39423 -1.94349 -6.09075
RightShoulder  9.74534 12.6466 52.7832
RightArm  8.64405 4.4293 12.9851
RightForeArm  20.559 -4.41159 17.4448
RightHand  0.308959 5.14332 3.09147
LeftUpLeg  -17.2217 14.6329 -10.4711
LeftLeg  16.5933 16.6777 2.87466
LeftFoot  -0.339698 -1.00381 10.4133
LeftToes  -2.73175e-012 1.00346e-010 -4.28452e-011
631
root  -7.89384 38.5262 -64.6887 179.046 -24.4836 177.439
RightUpLeg  -6.43552 -17.516 -3.82903
RightLeg  51.935 7.86883 10.2954
RightFoot  -6.49443 -0.936969 20.8682
RightToes  -1.33073e-015 0 -3.6325e-017
Spine  7.70717 1.82494 -0.0790262
Spine1  -1.36759 3.11413 -8.71728
HEad  -0.485267 14.2396 -8.81161
LeftShoulder1  1.30542 0.296019 -34.6147
LeftArm  10.2855 5.67561 -26.4734
LeftForeArm  1.77293 -8.96371 -15.6175
LeftHand  0.348119 -1.65319 -5.60978
RightShoulder  9.27019 12.4757 50.7946
RightArm  6.24466 2.41146 14.9556
RightForeArm  20.8951 -5.66095 17.1015
RightHand  0.446958 4.86516 4.75102
LeftUpLeg  -17.1691 12.0741 -11.3849
LeftLeg  19.6845 17.15 3.7224
LeftFoot  -2.53173 -0.777477 10.2621
LeftToes  -2.73175e-012 1.00346e-010 -4.28452e-011
632
root  -7.92993 38.513 -65.4803 179.753 -27.6954 176.377
RightUpLeg  -11.773 -15.5766 -5.40411
RightLeg  58.4324 3.03664 4.87961
RightFoot  -4.09422 -1.25644 19.2276
RightToes  -1.33073e-015 0 -3.6325e-017
Spine  8.40734 2.04883 -0.698289
Spine1  -1.33511 3.3253 -9.18671
HEad  -2.85656 23.22 -13.4415
LeftShoulder1  1.22786 0.50464 -34.8516
LeftArm  11.1394 4.31662 -27.4402
LeftForeArm  -0.223927 -12.5199 -13.4919
LeftHand  0.315471 -1.78291 -4.96634
RightShoulder  9.16884 12.3804 50.5446
RightArm  9.57565 1.40241 14.7489
RightForeArm  17.6441 -4.89951 17.6519
RightHand  0.604291 4.97656 6.44765
LeftUpLeg  -16.3289 11.0246 -11.8973
LeftLeg  20.5623 15.1345 3.04771
LeftFoot  -3.65229 -0.637837 9.7942
LeftToes  -2.73175e-012 1.00346e-010 -4.28452e-011
633
root  -7.94236 38.7454 -66.3181 179.974 -32.163 176.463
RightUpLeg  -15.0724 -13.7354 -6.11653
RightLeg  59.4637 -1.49398 -3.21897
RightFoot  -3.17783 -0.997552 13.6143
RightToes  -1.33073e-015 0 -3.6325e-017
Spine  8.36746 1.8324 -0.609796
Spine1  -0.565033 3.08558 -8.48325
HEad  -5.93434 33.1963 -17.9261
LeftShoulder1  1.15864 0.666395 -34.7449
LeftArm  17.4618 3.62398 -29.3511
LeftForeArm  -6.09068 -17.9057 -9.49895
LeftHand  0.272474 -2.189 -4.00351
RightShoulder  9.21059 12.1332 51.5614
RightArm  13.6406 1.29994 13.1154
RightForeArm  16.2342 -3.84106 18.1259
RightHand  0.617789 5.07841 6.52742
LeftUpLeg  -14.4063 8.50487 -11.2227
LeftLeg  19.4618 13.1227 2.13824
LeftFoot  -3.57296 -0.5973 9.09469
LeftToes  -2.73175e-012 1.00346e-010 -4.28452e-011
634
root  -7.94719 39.0319 -67.1203 179.755 -37.3164 177.292
RightUpLeg  -16.6058 -10.5878 -6.4746
RightLeg  56.1654 -5.11934 -8.58326
RightFoot  -4.22177 -0.532442 8.08226
RightToes  -1.33073e-015 0 -3.6325e-017
Spine  8.55807 1.46623 0.261727
Spine1  -0.267636 2.70197 -7.55581
HEad  -9.09403 43.1239 -22.1315
LeftShoulder1  1.136 0.703332 -34.4793
LeftArm  22.2458 3.56776 -31.1623
LeftForeArm  -8.82434 -22.8279 -5.63972
LeftHand  0.239325 -2.58904 -3.28575
RightShoulder  8.68254 11.2876 51.3927
RightArm  13.0304 1.02456 12.7495
RightForeArm  19.4477 -3.94816 17.8743
RightHand  0.54153 5.44339 5.47188
LeftUpLeg  -12.3267 6.30597 -10.1302
LeftLeg  17.6991 10.3417 1.22884
LeftFoot  -3.16459 -0.613122 8.82665
LeftToes  -2.73175e-012 1.00346e-010 -4.28452e-011
